<?xml version="1.0" encoding="utf-8"?>
<!-- Generator: Adobe Illustrator 21.1.0, SVG Export Plug-In . SVG Version: 6.00 Build 0)  -->
<svg version="1.0" xmlns="http://www.w3.org/2000/svg" xmlns:xlink="http://www.w3.org/1999/xlink" x="0px" y="0px"
	 viewBox="0 0 122.4 52.7" style="enable-background:new 0 0 122.4 52.7;" xml:space="preserve">
<style type="text/css">
	.st0{fill:#4E4294;}
</style>
<g id="Hallo-Ebene">
</g>
<g id="Tschüss-Ebene">
</g>
<g id="Hallo">
</g>
<g id="Tschüss">
	<g>
		<path class="st0" d="M0.5,17.4v3.8h1.3v-3.8H0.5z M5.7,17.4v20.1h1.3V17.4H5.7z M10.9,17.4v3.8h1.3v-3.8H10.9z M13.6,17.4v3.8h1.3
			v-3.8H13.6z M8.4,17.4v20.1h1V21.2h0.2v-3.8H8.4z M3.2,17.4v3.8h1.2v-3.8H3.2z"/>
		<path class="st0" d="M18.8,18.6v8.8c0.4,0.3,0.8,0.5,1.2,0.8V17.9C19.6,18.1,19.2,18.3,18.8,18.6z M18.8,33.5v4
			c0.4,0.1,0.8,0.2,1.2,0.2v-3.8C19.6,33.7,19.2,33.6,18.8,33.5z M24.1,17.1L24.1,17.1l-0.1,3.7c0.4,0,0.8,0,1.2,0.1v-3.8
			C24.9,17.1,24.5,17.1,24.1,17.1z M24.9,25.6c-0.3-0.1-0.5-0.2-0.8-0.3V30c0.6,0.4,1,0.7,1.2,1.2v-5.4C25.1,25.7,25,25.6,24.9,25.6
			z M26.6,17.3v3.9c0.5,0.1,1,0.3,1.3,0.5v-4C27.5,17.5,27.1,17.4,26.6,17.3z M24.9,25.6c-0.3-0.1-0.5-0.2-0.8-0.3V30
			c0.6,0.4,1,0.7,1.2,1.2v-5.4C25.1,25.7,25,25.6,24.9,25.6z M21.4,23.7v5.2c0.2,0.1,0.4,0.2,0.6,0.2c0.2,0.1,0.5,0.2,0.7,0.3v-4.6
			C22.1,24.4,21.6,24,21.4,23.7z M21.4,17.4v4.4c0.3-0.4,0.7-0.7,1.3-0.9v-3.8C22.3,17.2,21.8,17.3,21.4,17.4z M24.1,33.8v3.9
			c0.4-0.1,0.8-0.1,1.2-0.3v-4.7C25.1,33.2,24.7,33.5,24.1,33.8z M24.9,25.6c-0.3-0.1-0.5-0.2-0.8-0.3V30c0.6,0.4,1,0.7,1.2,1.2
			v-5.4C25.1,25.7,25,25.6,24.9,25.6z M29.3,28.7v5.9c0.5-0.9,0.8-1.9,0.8-3C30.1,30.5,29.8,29.5,29.3,28.7z M26.6,26.3v10.6
			c0.5-0.2,1-0.5,1.3-0.8v-8.9C27.6,26.9,27.1,26.6,26.6,26.3z M22.2,34.1c-0.3,0-0.6,0-0.8,0v3.8c0.2,0,0.4,0,0.6,0
			c0.3,0,0.5,0,0.8,0v-3.7C22.6,34.1,22.4,34.1,22.2,34.1z M21.4,23.7v5.2c0.2,0.1,0.4,0.2,0.6,0.2c0.2,0.1,0.5,0.2,0.7,0.3v-4.6
			C22.1,24.4,21.6,24,21.4,23.7z M17.2,32.8l-0.9,3.8c0.3,0.2,0.7,0.4,1.2,0.5V33C17.4,32.9,17.3,32.9,17.2,32.8z M16.5,23.1
			c0,1.2,0.3,2.1,0.9,3V20C16.8,20.9,16.5,22,16.5,23.1z"/>
		<path class="st0" d="M39.7,33.1v4.4c0.4,0.1,0.8,0.2,1.2,0.2v-4.1C40.5,33.5,40.1,33.3,39.7,33.1z M43.5,34.1
			c-0.4,0-0.8,0-1.2-0.1v3.8c0.2,0,0.3,0,0.5,0c0.3,0,0.6,0,0.8,0V34C43.6,34.1,43.5,34.1,43.5,34.1z M47.5,34.5v2.6
			c0.2-0.1,0.3-0.1,0.5-0.2L47.5,34.5z M45,37.7c0.4,0,0.8-0.1,1.2-0.2v-3.8c-0.4,0.1-0.8,0.2-1.2,0.2V37.7z M38.4,18
			c-0.5,0.2-0.9,0.4-1.3,0.7v17.8c0.4,0.2,0.9,0.4,1.3,0.6v-5.2c-0.9-1.1-1.3-2.6-1.3-4.4c0-1.9,0.5-3.3,1.3-4.4V18z M43.2,17.1
			c-0.3,0-0.6,0-1,0v3.8c0.4-0.1,0.8-0.1,1.2-0.1c0.1,0,0.1,0,0.2,0v-3.8C43.5,17.1,43.4,17.1,43.2,17.1z M47.5,17.7v3l0.7-2.8
			C48,17.9,47.8,17.8,47.5,17.7z M45,20.9c0.4,0.1,0.8,0.1,1.2,0.3v-3.9c-0.4-0.1-0.8-0.1-1.2-0.2V20.9z M39.7,17.5v4.3
			c0.4-0.2,0.8-0.5,1.2-0.6v-4C40.5,17.3,40.1,17.4,39.7,17.5z M34.5,20.9v13.6c0.4,0.4,0.7,0.8,1.2,1.2v-16
			C35.2,20,34.8,20.4,34.5,20.9z M32.2,27.8c0,1.7,0.3,3.2,0.9,4.6v-9.2C32.6,24.4,32.2,26,32.2,27.8z"/>
		<path class="st0" d="M60.6,25.1v4h1.2v-4H60.6z M65.8,17.4v20.1H67V17.4H65.8z M63.2,17.4v20.1h1.3V17.4H63.2z M57.9,25.1v4h1.3
			v-4H57.9z M55.5,25.1v-7.7h-0.2v20.1h0.2v-8.4h1v-4H55.5z M52.7,17.4v20.1H54V17.4H52.7z M50.9,17.4v20.1h0.4V17.4H50.9z"/>
		<path class="st0" d="M83.9,12.3V16c0.7-0.3,1.1-1,1.1-1.8C85,13.4,84.6,12.7,83.9,12.3z M81.5,12.9v2.6c0.3,0.3,0.6,0.6,1.1,0.7
			v-4C82.1,12.3,81.7,12.5,81.5,12.9z M74.8,14.2c0,0.2,0,0.5,0.1,0.7v-1.4C74.8,13.7,74.8,14,74.8,14.2z M78.8,13.7v0.9
			c0-0.1,0.1-0.3,0.1-0.5C78.8,14,78.8,13.9,78.8,13.7z M76.9,12.1c-0.2,0-0.4,0-0.6,0.1v3.9c0.2,0.1,0.4,0.1,0.6,0.1
			c0.2,0,0.4,0,0.6-0.1v-3.9C77.3,12.2,77.1,12.1,76.9,12.1z M76.3,30.9v6.4c0.4,0.1,0.8,0.2,1.2,0.3v-4.3
			C76.9,32.8,76.5,32,76.3,30.9z M86.4,17.4v17.3c0.6-1,1.1-2.1,1.3-3.6V17.4H86.4z M83.9,17.4v19.6c0.4-0.2,0.8-0.5,1.2-0.8V17.4
			H83.9z M81.5,33.8v3.9c0.4-0.1,0.8-0.1,1.1-0.2v-4.7C82.3,33.2,81.9,33.6,81.5,33.8z M79.7,34.2c-0.3,0-0.7,0-0.9-0.1v3.7
			c0.3,0,0.5,0,0.8,0c0.2,0,0.4,0,0.5,0v-3.6C80,34.2,79.9,34.2,79.7,34.2z M73.6,17.4v18.2c0.4,0.4,0.8,0.8,1.3,1.1V17.4H73.6z
			 M71.5,17.4v11.2c0,1.8,0.2,3.4,0.7,4.7V17.4H71.5z"/>
		<path class="st0" d="M94.3,18.2v9.7c0.4,0.2,0.8,0.4,1.2,0.6V17.6C95.1,17.8,94.7,18,94.3,18.2z M94.3,33.7v3.9
			c0.4,0.1,0.8,0.1,1.2,0.2v-3.8C95.1,33.9,94.7,33.8,94.3,33.7z M99.5,17.1v3.7c0.4,0,0.9,0.1,1.2,0.1v-3.8
			C100.4,17.1,100,17.1,99.5,17.1z M102.1,17.4v3.9c0.4,0.1,0.8,0.3,1,0.4l0.3-1.1v-2.9C103,17.6,102.6,17.5,102.1,17.4z M96.8,24.2
			V29c0,0,0.1,0,0.1,0c0.5,0.2,0.9,0.3,1.2,0.5v-4.6C97.6,24.7,97.2,24.5,96.8,24.2z M96.8,17.3v4c0.3-0.2,0.8-0.4,1.3-0.5v-3.8
			C97.7,17.1,97.3,17.2,96.8,17.3z M99.7,25.6c-0.1,0-0.1-0.1-0.2-0.1v4.8c0.5,0.4,0.8,0.9,0.8,1.6c0,0.6-0.3,1.2-0.8,1.6v4.1
			c0.4-0.1,0.9-0.2,1.2-0.3V26C100.4,25.8,100.1,25.7,99.7,25.6z M104.8,30.1v3c0.1-0.5,0.2-1,0.2-1.5C105,31,104.9,30.5,104.8,30.1
			z M102.1,36.6c0.5-0.3,1-0.7,1.3-1.1v-7.8c-0.4-0.4-0.8-0.7-1.3-1.1V36.6z M97.1,34.1c-0.1,0-0.2,0-0.3,0v3.7c0,0,0,0,0,0
			c0.5,0,0.9,0,1.3-0.1V34C97.9,34.1,97.5,34.1,97.1,34.1z M96.8,24.2V29c0,0,0.1,0,0.1,0c0.5,0.2,0.9,0.3,1.2,0.5v-4.6
			C97.6,24.7,97.2,24.5,96.8,24.2z M92.1,32.8l-0.4,1.8v2.2c0.4,0.2,0.8,0.3,1.3,0.5v-4C92.6,33.1,92.3,33,92.1,32.8z M91.6,21.5
			v3.1c0.3,0.8,0.7,1.5,1.3,2.2v-7.6C92.3,19.9,91.9,20.7,91.6,21.5z"/>
		<path class="st0" d="M110,18.5v9c0.4,0.3,0.8,0.5,1.2,0.7V17.8C110.7,18,110.3,18.2,110,18.5z M110,33.6v4
			c0.4,0.1,0.8,0.1,1.2,0.2v-3.8C110.8,33.8,110.4,33.7,110,33.6z M115.2,17.1v3.7c0.4,0,0.8,0,1.2,0.1v-3.8
			C116,17.1,115.6,17.1,115.2,17.1z M115.9,25.6c-0.2-0.1-0.5-0.2-0.7-0.3V30c0.7,0.4,1,0.8,1.2,1.4v-5.6
			C116.2,25.7,116.1,25.6,115.9,25.6z M117.7,17.3v3.9c0.5,0.2,1,0.3,1.3,0.5v-4C118.7,17.5,118.2,17.4,117.7,17.3z M115.9,25.6
			c-0.2-0.1-0.5-0.2-0.7-0.3V30c0.7,0.4,1,0.8,1.2,1.4v-5.6C116.2,25.7,116.1,25.6,115.9,25.6z M112.5,23.8v5.1
			c0.2,0.1,0.4,0.1,0.6,0.2c0.3,0.1,0.5,0.2,0.8,0.3v-4.6C113.2,24.4,112.8,24.1,112.5,23.8z M112.5,17.4v4.3
			c0.3-0.4,0.7-0.6,1.3-0.8v-3.8C113.4,17.2,112.9,17.3,112.5,17.4z M115.2,33.7v3.9c0.4-0.1,0.8-0.2,1.2-0.3v-5
			C116.2,33,115.8,33.4,115.2,33.7z M115.9,25.6c-0.2-0.1-0.5-0.2-0.7-0.3V30c0.7,0.4,1,0.8,1.2,1.4v-5.6
			C116.2,25.7,116.1,25.6,115.9,25.6z M120.4,28.8v5.6c0.5-0.9,0.7-1.8,0.7-2.8C121.1,30.5,120.9,29.6,120.4,28.8z M117.7,36.9
			c0.5-0.2,1-0.5,1.3-0.9v-8.7c-0.4-0.3-0.8-0.6-1.3-0.9V36.9z M113.3,34.1c-0.2,0-0.5,0-0.7,0v3.8c0.2,0,0.3,0,0.5,0
			c0.3,0,0.6,0,0.9,0v-3.7C113.7,34.1,113.5,34.1,113.3,34.1z M112.5,23.8v5.1c0.2,0.1,0.4,0.1,0.6,0.2c0.3,0.1,0.5,0.2,0.8,0.3
			v-4.6C113.2,24.4,112.8,24.1,112.5,23.8z M108.2,32.8l-0.9,3.6l0,0.1c0,0,0,0,0,0c0.4,0.2,0.8,0.4,1.3,0.5V33
			C108.5,33,108.3,32.9,108.2,32.8z M107.5,23.1c0,1.2,0.4,2.3,1.1,3.2v-6.5C107.9,20.7,107.5,21.9,107.5,23.1z"/>
	</g>
</g>
<g id="Überschneidung">
</g>
</svg>
