<?xml version="1.0" encoding="utf-8"?>
<!-- Generator: Adobe Illustrator 21.1.0, SVG Export Plug-In . SVG Version: 6.00 Build 0)  -->
<svg version="1.0" xmlns="http://www.w3.org/2000/svg" xmlns:xlink="http://www.w3.org/1999/xlink" x="0px" y="0px"
	 viewBox="0 0 122.4 52.7" style="enable-background:new 0 0 122.4 52.7;" xml:space="preserve">
<style type="text/css">
	.st0{fill:#EF781A;}
</style>
<g id="Hallo-Ebene">
</g>
<g id="Tschüss-Ebene">
</g>
<g id="Hallo">
	<g>
		<path class="st0" d="M1.9,14.1v27.2H3V14.1H1.9z M4.4,14.1v27.2h1.3V14.1H4.4z M7.7,24.6V14.1H7.1v27.2h0.7V30h0.5v-5.4H7.7z
			 M9.6,24.6V30h1.3v-5.4H9.6z M14.8,24.6V30h1.3v-5.4H14.8z M22.7,14.1v27.2H24V14.1H22.7z M20,14.1v27.2h1.4V14.1H20z M17.9,14.1
			v10.5h-0.4V30h0.4v11.4h0.8V14.1H17.9z M12.3,24.6V30h1.2v-5.4H12.3z"/>
		<path class="st0" d="M27.9,39.7v1.7h1.2v-5.6L27.9,39.7z M30.5,31.4v9.9h1.3V27.1L30.5,31.4z M33.1,22.7v18.7h0.7l0.5-1.9V18.8
			L33.1,22.7z M38.4,29.8v4.6h1.2v-4.6H38.4z M40.9,14.1v9.6c0,0.1,0.1,0.2,0.1,0.3l1.3,4.4V14.1H40.9z M40.9,29.8v4.6h1.4v-4.6
			H40.9z M51.4,38.4v3h0.9L51.4,38.4z M48.8,41.4H50v-7.3l-1.2-3.8V41.4z M46.2,21.6v19.8h1.3V25.9L46.2,21.6z M43.8,14.1h-0.2v20.5
			l1.2,4V17.3L43.8,14.1z M38.4,14.1v9.5c0.4-1.5,0.8-3.4,1.2-4.9h0v-4.6H38.4z M37,14.1h-1.3l-0.1,0.3v20.3l0.1-0.3H37v-4.6h-0.4
			l0.4-1.3V14.1z"/>
		<path class="st0" d="M56.6,14.1v27.2h1.3V14.1H56.6z M59.2,14.1v27.2h1.2V14.1H59.2z M62.1,36.2V14.1h-0.3v27.2h1.4v-5.2H62.1z
			 M67,36.2v5.2h1.3v-5.2H67z M72.2,36.2v5.2h0.7v-5.2H72.2z M69.7,41.4h1.2v-5.2h-1.2V41.4z M64.5,36.2v5.2h1.2v-5.2H64.5z"/>
		<path class="st0" d="M77.4,14.1v27.2h1.3V14.1H77.4z M80.1,14.1v27.2h1.2V14.1H80.1z M82.8,36.2V14.1h-0.1v27.2h1.1v-5.2H82.8z
			 M87.8,36.2v5.2H89v-5.2H87.8z M93,36.2v5.2h0.6v-5.2H93z M90.3,41.4h1.3v-5.2h-1.3V41.4z M85.1,36.2v5.2h1.3v-5.2H85.1z"/>
		<path class="st0" d="M103.4,35.3v6.1c0.4,0.1,0.8,0.2,1.2,0.3v-5.4C104.2,35.9,103.8,35.6,103.4,35.3z M106,13.8v5
			c0.4-0.1,0.9-0.2,1.3-0.2v-4.9C106.9,13.7,106.4,13.8,106,13.8z M106,36.7v5c0.4,0,0.8,0.1,1.3,0.1h0.1v-4.9
			C106.8,36.9,106.4,36.8,106,36.7z M111.2,35.7v5.7c0.5-0.1,0.9-0.3,1.3-0.4v-6.8C112.1,34.7,111.7,35.2,111.2,35.7z M119.1,20.4
			v14.5c0.5-1.1,0.9-2.3,1.2-3.6v-7.5C120,22.7,119.6,21.5,119.1,20.4z M116.4,16.9v21.7c0.5-0.4,0.9-0.9,1.3-1.5V18.3
			C117.3,17.8,116.9,17.3,116.4,16.9z M113.9,15.1v9.8c0.2,0.9,0.3,1.8,0.3,2.8c0,1-0.1,2-0.3,2.9v9.7c0.4-0.2,0.8-0.5,1.2-0.7V15.8
			C114.7,15.5,114.3,15.3,113.9,15.1z M111.2,14.1v5.8c0.5,0.4,0.9,0.9,1.3,1.5v-6.9C112.1,14.4,111.6,14.2,111.2,14.1z M108.7,36.8
			v4.9c0.4,0,0.8-0.1,1.2-0.1v-5.1C109.5,36.6,109.1,36.8,108.7,36.8z M108.7,13.7v5c0.4,0.1,0.8,0.2,1.2,0.4v-5.2
			C109.5,13.8,109.1,13.8,108.7,13.7z M103.4,14.3v6c0.4-0.4,0.8-0.7,1.2-0.9V14C104.2,14.1,103.8,14.2,103.4,14.3z M102.1,14.8
			c-0.5,0.2-0.9,0.5-1.4,0.7v24.6c0.4,0.3,0.9,0.5,1.4,0.7v-7.5c-0.8-1.5-1.2-3.4-1.2-5.5c0-2.1,0.4-4.1,1.2-5.6V14.8z M98.2,17.6
			v20.5c0.4,0.4,0.8,0.7,1.2,1.1V16.5C98.9,16.9,98.6,17.2,98.2,17.6z M95.5,22v11.9c0.4,0.9,0.8,1.8,1.3,2.6V19.4
			C96.3,20.2,95.9,21,95.5,22z"/>
	</g>
</g>
<g id="Tschüss">
</g>
<g id="Überschneidung">
</g>
</svg>
